<?xml version="1.0" encoding="UTF-8" standalone="no"?>
<!-- Generator: Adobe Illustrator 16.0.0, SVG Export Plug-In . SVG Version: 6.00 Build 0)  -->

<svg
   xmlns:dc="http://purl.org/dc/elements/1.1/"
   xmlns:cc="http://creativecommons.org/ns#"
   xmlns:rdf="http://www.w3.org/1999/02/22-rdf-syntax-ns#"
   xmlns:svg="http://www.w3.org/2000/svg"
   xmlns="http://www.w3.org/2000/svg"
   xmlns:sodipodi="http://sodipodi.sourceforge.net/DTD/sodipodi-0.dtd"
   xmlns:inkscape="http://www.inkscape.org/namespaces/inkscape"
   version="1.1"
   id="Capa_1"
   x="0px"
   y="0px"
   width="36.911003"
   height="49.214397"
   viewBox="0 0 36.911002 49.214397"
   xml:space="preserve"
   inkscape:version="0.91 r13725"
   sodipodi:docname="map.svg"><metadata
     id="metadata41"><rdf:RDF><cc:Work
         rdf:about=""><dc:format>image/svg+xml</dc:format><dc:type
           rdf:resource="http://purl.org/dc/dcmitype/StillImage" /><dc:title></dc:title></cc:Work></rdf:RDF></metadata><defs
     id="defs39" /><sodipodi:namedview
     pagecolor="#ffffff"
     bordercolor="#666666"
     borderopacity="1"
     objecttolerance="10"
     gridtolerance="10"
     guidetolerance="10"
     inkscape:pageopacity="0"
     inkscape:pageshadow="2"
     inkscape:window-width="1301"
     inkscape:window-height="744"
     id="namedview37"
     showgrid="false"
     fit-margin-top="0"
     fit-margin-left="0"
     fit-margin-right="0"
     fit-margin-bottom="0"
     inkscape:zoom="0.48638533"
     inkscape:cx="181.95551"
     inkscape:cy="242.606"
     inkscape:window-x="65"
     inkscape:window-y="24"
     inkscape:window-maximized="1"
     inkscape:current-layer="Capa_1" /><g
     id="g3"
     transform="matrix(0.10142865,0,0,0.10142865,-6.1517491,0)"><path
       d="M 242.606,0 C 142.124,0 60.651,81.473 60.651,181.955 c 0,100.482 151.631,303.257 181.956,303.257 30.326,0 181.955,-202.775 181.955,-303.257 C 424.562,81.473 343.089,0 242.606,0 Z m 0,303.257 c -66.9,0 -121.302,-54.433 -121.302,-121.302 0,-66.869 54.402,-121.304 121.302,-121.304 66.902,0 121.302,54.435 121.302,121.304 0,66.869 -54.399,121.302 -121.302,121.302 z"
       id="path5"
       inkscape:connector-curvature="0" /></g><g
     id="g7"
     transform="translate(-60.651,-435.9976)" /><g
     id="g9"
     transform="translate(-60.651,-435.9976)" /><g
     id="g11"
     transform="translate(-60.651,-435.9976)" /><g
     id="g13"
     transform="translate(-60.651,-435.9976)" /><g
     id="g15"
     transform="translate(-60.651,-435.9976)" /><g
     id="g17"
     transform="translate(-60.651,-435.9976)" /><g
     id="g19"
     transform="translate(-60.651,-435.9976)" /><g
     id="g21"
     transform="translate(-60.651,-435.9976)" /><g
     id="g23"
     transform="translate(-60.651,-435.9976)" /><g
     id="g25"
     transform="translate(-60.651,-435.9976)" /><g
     id="g27"
     transform="translate(-60.651,-435.9976)" /><g
     id="g29"
     transform="translate(-60.651,-435.9976)" /><g
     id="g31"
     transform="translate(-60.651,-435.9976)" /><g
     id="g33"
     transform="translate(-60.651,-435.9976)" /><g
     id="g35"
     transform="translate(-60.651,-435.9976)" /></svg>